<!DOCTYPE svg PUBLIC "-//W3C//DTD SVG 20010904//EN" "http://www.w3.org/TR/2001/REC-SVG-20010904/DTD/svg10.dtd">
<svg version="1.0" xmlns="http://www.w3.org/2000/svg" width="100px" height="100px" viewBox="0 0 1000 1000" preserveAspectRatio="xMidYMid meet">
<g id="layer101" fill="#660460" stroke="none">
 <path d="M361 974 c-207 -55 -351 -248 -352 -469 -1 -146 44 -259 141 -355 98 -98 203 -140 351 -140 281 0 490 209 489 490 -1 148 -40 241 -144 346 -73 73 -143 114 -227 133 -63 15 -195 12 -258 -5z"/>
 </g>
<g id="layer102" fill="#ffffff" stroke="none">
 <path d="M416 962 c-4 -15 -6 -75 -5 -132 1 -59 -3 -117 -10 -133 -6 -16 -11 -36 -11 -46 0 -10 34 -100 77 -200 81 -192 89 -200 114 -124 17 53 13 108 -12 158 -21 43 -22 49 -10 110 10 47 11 110 6 230 -7 151 -9 165 -26 165 -33 0 -41 -34 -34 -148 6 -98 -5 -235 -20 -250 -16 -16 -26 29 -21 98 4 41 1 111 -5 155 -10 71 -9 85 5 113 l17 32 -30 0 c-24 0 -31 -5 -35 -28z"/>
 <path d="M196 893 c-35 -27 -36 -30 -32 -73 3 -25 9 -71 12 -102 l7 -57 -44 -3 -44 -3 3 -80 c3 -98 19 -219 33 -263 13 -40 67 -69 98 -53 41 22 76 160 83 326 l3 70 -43 3 -43 3 5 37 c3 20 7 48 10 62 3 14 7 55 9 93 5 77 -1 81 -57 40z"/>
 <path d="M753 813 c3 -60 7 -117 9 -128 2 -14 -7 -24 -33 -37 -50 -23 -59 -57 -58 -197 2 -222 24 -224 43 -3 9 117 14 137 29 140 15 3 17 -7 17 -105 0 -270 35 -279 49 -13 5 93 9 115 21 115 12 0 16 -26 21 -152 5 -137 10 -175 23 -162 9 9 26 166 26 242 0 91 -11 117 -61 143 -21 10 -28 20 -24 32 3 10 9 51 15 92 l10 75 -37 33 c-20 17 -41 32 -46 32 -6 0 -7 -41 -4 -107z"/>
 </g>

</svg>