<!DOCTYPE svg PUBLIC "-//W3C//DTD SVG 20010904//EN" "http://www.w3.org/TR/2001/REC-SVG-20010904/DTD/svg10.dtd">
<svg version="1.0" xmlns="http://www.w3.org/2000/svg" width="341px" height="81px" viewBox="0 0 3410 810" preserveAspectRatio="xMidYMid meet">
<g id="layer101" fill="#660460" stroke="none">
 <path d="M2823 771 c-64 -40 -79 -126 -33 -183 24 -31 35 -18 21 25 -34 101 67 157 162 91 49 -35 84 -93 108 -180 l17 -62 -36 24 c-49 34 -78 39 -106 21 -22 -15 -25 -15 -41 3 -24 26 -71 26 -85 1 -5 -11 -10 -35 -10 -53 l0 -33 -40 44 c-34 37 -42 42 -56 30 -8 -7 -13 -21 -11 -31 4 -14 -6 -9 -34 17 -66 59 -129 45 -129 -29 0 -36 46 -136 62 -136 34 0 36 22 7 83 -37 78 -26 93 37 49 25 -18 50 -33 57 -35 6 -1 18 -22 27 -47 11 -33 20 -45 35 -45 16 0 20 6 18 28 l-2 27 33 -35 c64 -67 89 -40 56 61 -16 46 -19 69 -12 76 16 16 69 -22 90 -62 25 -50 117 -117 170 -123 38 -5 43 -3 48 20 4 14 0 40 -9 61 -9 20 -26 78 -38 127 -44 186 -107 262 -229 279 -35 5 -52 2 -77 -13z m223 -330 c47 -33 82 -81 61 -81 -13 0 -107 66 -107 75 0 2 -3 10 -6 19 -9 24 8 19 52 -13z"/>
 <path d="M231 578 c-63 -34 -88 -132 -57 -225 l16 -48 -20 25 c-11 14 -34 60 -51 103 -23 58 -36 77 -50 77 -30 0 -24 -39 22 -148 109 -258 128 -297 144 -300 35 -8 37 15 5 78 l-31 62 79 -61 c82 -65 112 -71 112 -25 0 13 -4 24 -10 24 -18 0 -93 75 -126 126 -68 107 -79 200 -29 250 30 30 74 31 134 4 52 -24 51 -24 51 -5 0 23 -75 67 -122 72 -24 2 -54 -2 -67 -9z"/>
 <path d="M1240 535 c-23 -27 10 -95 47 -95 10 0 13 5 8 18 -4 9 -10 25 -13 36 -4 16 -2 17 16 7 28 -15 34 -41 23 -92 -17 -70 -13 -117 9 -139 23 -23 39 -25 63 -7 24 17 27 70 5 75 -12 2 -18 -3 -18 -13 0 -9 -6 -15 -12 -12 -14 4 -14 16 -3 119 7 63 6 68 -18 92 -30 30 -87 36 -107 11z"/>
 <path d="M1674 541 c-36 -15 -64 -60 -64 -102 0 -82 77 -219 167 -299 62 -54 97 -72 136 -68 29 3 32 7 35 38 3 41 -16 83 -39 88 -21 4 -32 -24 -19 -49 9 -16 7 -19 -12 -19 -33 0 -148 122 -186 199 -35 71 -40 115 -16 149 24 35 77 29 158 -18 37 -22 72 -40 77 -40 34 0 -28 58 -100 95 -56 28 -108 38 -137 26z"/>
 <path d="M3217 543 c-25 -24 7 -103 41 -103 15 0 15 6 1 32 -18 33 6 45 26 14 15 -23 16 -34 6 -83 -6 -31 -11 -67 -11 -80 0 -24 40 -73 60 -73 19 0 50 40 50 65 0 28 -27 35 -36 10 -4 -8 -11 -15 -16 -15 -6 0 -7 34 -3 93 6 85 5 94 -15 120 -17 21 -30 27 -59 27 -21 0 -41 -3 -44 -7z"/>
 <path d="M571 514 c-12 -15 -21 -34 -21 -42 0 -12 -5 -11 -22 6 -34 31 -77 45 -94 31 -34 -28 -9 -93 61 -158 35 -32 53 -42 71 -38 13 2 24 0 24 -4 0 -5 9 -9 20 -9 25 0 26 23 4 75 -18 45 -21 92 -6 107 15 15 54 3 86 -27 24 -22 27 -31 21 -64 -5 -32 -3 -41 14 -53 11 -8 38 -59 59 -114 38 -99 64 -127 75 -83 6 23 3 31 -38 123 l-26 59 51 -5 c70 -7 67 16 -5 37 -61 17 -70 29 -80 106 -3 26 -12 55 -20 65 -14 18 -15 18 -32 -3 l-18 -23 -30 20 c-41 27 -70 25 -94 -6z m-37 -103 c16 -17 26 -34 23 -38 -8 -7 -63 42 -79 70 -8 16 -7 17 9 9 10 -6 31 -24 47 -41z"/>
 <path d="M903 525 c-52 -37 -32 -128 42 -194 30 -26 44 -31 73 -29 33 3 37 6 40 35 3 25 -4 39 -34 68 -20 21 -53 44 -72 52 -32 13 -33 16 -19 30 14 15 20 15 59 0 80 -31 95 -14 25 28 -50 29 -83 32 -114 10z m91 -154 c31 -34 3 -24 -30 10 -21 23 -23 29 -9 21 11 -5 29 -20 39 -31z"/>
 <path d="M2205 519 c-6 -19 -8 -19 -24 -5 -10 9 -34 16 -55 16 -33 0 -39 -4 -49 -30 -14 -36 -17 -37 -47 -5 -31 33 -67 33 -82 0 -9 -21 -7 -37 16 -94 28 -72 48 -97 66 -86 17 10 12 41 -15 91 -45 85 -8 62 62 -38 27 -41 63 -51 63 -19 0 10 -7 35 -15 54 -29 71 -12 101 45 77 34 -14 50 -53 39 -94 -6 -23 -3 -32 17 -51 13 -12 39 -63 58 -116 26 -73 38 -94 52 -94 30 0 28 40 -5 112 -17 36 -31 70 -31 75 0 7 20 9 50 6 31 -3 51 -1 53 6 8 21 26 -9 60 -104 27 -74 38 -95 53 -95 30 0 28 40 -5 112 -17 36 -31 70 -31 75 0 7 20 9 50 6 68 -7 67 16 -2 36 -75 22 -78 26 -88 92 -10 72 -18 94 -34 94 -25 0 -36 -46 -22 -87 8 -24 10 -46 5 -61 -5 -12 -6 -29 -3 -37 5 -12 0 -12 -28 -5 -85 25 -98 38 -98 101 0 67 -40 116 -55 68z"/>
 <path d="M2643 244 c-8 -22 17 -44 60 -51 47 -7 50 14 7 45 -35 26 -58 28 -67 6z"/>
 <path d="M1130 195 c0 -3 9 -22 20 -42 11 -21 20 -48 20 -60 0 -28 21 -30 43 -5 23 25 21 45 -5 69 -33 30 -78 52 -78 38z"/>
 </g>

</svg>